<svg width="14" height="14" viewBox="0 0 14 14" fill="none" xmlns="http://www.w3.org/2000/svg">
<g id="Group 24">
<path id="Icon (Stroke)" fill-rule="evenodd" clip-rule="evenodd" d="M3.81818 1.27273C2.41237 1.27273 1.27273 2.41237 1.27273 3.81818V10.1818C1.27273 11.5876 2.41237 12.7273 3.81818 12.7273H10.1818C11.5876 12.7273 12.7273 11.5876 12.7273 10.1818V3.81818C12.7273 2.41237 11.5876 1.27273 10.1818 1.27273H3.81818ZM0 3.81818C0 1.70946 1.70946 0 3.81818 0H10.1818C12.2905 0 14 1.70946 14 3.81818V10.1818C14 12.2905 12.2905 14 10.1818 14H3.81818C1.70946 14 0 12.2905 0 10.1818V3.81818ZM9.86364 3.5C9.86364 3.14855 10.1485 2.86364 10.5 2.86364H10.5064C10.8578 2.86364 11.1427 3.14855 11.1427 3.5C11.1427 3.85145 10.8578 4.13636 10.5064 4.13636H10.5C10.1485 4.13636 9.86364 3.85145 9.86364 3.5ZM7.30756 5.08403C6.91036 5.02512 6.50469 5.09297 6.14826 5.27791C5.79184 5.46286 5.5028 5.75548 5.32227 6.11416C5.14173 6.47284 5.07889 6.87931 5.14269 7.27576C5.20648 7.67222 5.39366 8.03846 5.6776 8.3224C5.96154 8.60634 6.32778 8.79352 6.72424 8.85731C7.12069 8.92111 7.52716 8.85827 7.88584 8.67773C8.24452 8.4972 8.53714 8.20816 8.72209 7.85174C8.90703 7.49531 8.97488 7.08964 8.91597 6.69243C8.85589 6.28727 8.66709 5.91217 8.37746 5.62254C8.08783 5.33291 7.71273 5.14411 7.30756 5.08403ZM5.56208 4.14821C6.15613 3.83997 6.83224 3.7269 7.49425 3.82507C8.16953 3.9252 8.7947 4.23987 9.27742 4.72258C9.76013 5.2053 10.0748 5.83047 10.1749 6.50575C10.2731 7.16776 10.16 7.84387 9.85179 8.43792C9.54355 9.03196 9.05585 9.51369 8.45805 9.81458C7.86025 10.1155 7.18279 10.2202 6.52204 10.1139C5.86128 10.0076 5.25088 9.69559 4.77765 9.22235C4.30441 8.74912 3.99245 8.13872 3.88613 7.47796C3.7798 6.81721 3.88453 6.13975 4.18542 5.54195C4.48631 4.94415 4.96804 4.45645 5.56208 4.14821Z" fill="white"/>
</g>
</svg>
